<svg xmlns="http://www.w3.org/2000/svg" width="500" height="500" viewBox="0 0 500 500">
<g>
<path d="M 188.98,387.43 C188.44,386.02 187.97,383.66 187.93,382.18 L 187.86,379.50 L 186.76,381.80 C186.03,383.30 184.94,383.99 183.58,383.80 C182.43,383.63 180.76,384.39 179.86,385.47 C177.15,388.73 175.01,385.96 174.97,379.13 C174.94,373.88 174.83,373.64 173.42,375.50 C172.59,376.60 171.42,379.42 170.83,381.77 C169.62,386.56 168.30,387.95 167.34,385.44 C166.77,383.96 166.49,384.03 164.97,386.03 C162.76,388.98 160.16,388.04 159.35,384.01 C158.80,381.24 158.63,381.13 157.45,382.73 C156.74,383.70 155.83,384.16 155.42,383.75 C155.01,383.34 153.85,384.36 152.85,386.00 C149.48,391.55 146.25,389.01 145.57,380.26 C145.27,376.44 144.81,375.44 143.22,375.20 C141.52,374.93 141.15,375.66 140.54,380.50 C139.65,387.65 137.44,387.47 137.63,380.27 C137.75,375.66 137.58,375.28 135.63,375.65 C133.58,376.04 133.59,376.01 135.75,374.87 C137.49,373.96 138.00,372.82 138.00,369.85 C138.00,367.09 138.43,366.00 139.50,366.00 C140.58,366.00 141.00,367.11 141.00,370.00 C141.00,373.51 141.28,374.00 143.31,374.00 C145.20,374.00 145.79,373.25 146.56,369.82 C147.95,363.64 149.91,363.71 149.68,369.93 C149.58,372.71 149.16,374.99 148.75,374.99 C147.86,375.00 147.77,382.55 148.63,385.75 C149.80,390.11 151.60,387.61 153.96,378.35 C155.05,374.08 156.39,373.00 160.58,373.00 C162.90,373.00 163.00,373.29 163.04,379.75 L 163.08,386.50 L 165.00,383.00 C166.05,381.07 166.94,377.81 166.96,375.75 C166.99,373.10 167.44,372.00 168.50,372.00 C169.44,372.00 170.00,372.95 170.00,374.56 L 170.00,377.11 L 172.50,374.31 C174.97,371.53 175.02,371.52 176.57,373.50 C177.62,374.84 177.96,376.65 177.60,379.00 C177.31,380.93 177.47,383.15 177.96,383.95 C178.89,385.44 178.83,385.53 181.99,377.49 C182.53,376.10 184.06,374.47 185.40,373.87 C187.00,373.13 188.04,371.62 188.46,369.38 C188.83,367.38 189.68,366.00 190.55,366.00 C191.73,366.00 192.02,368.11 192.09,377.25 L 192.18,388.50 L 193.57,383.50 C194.34,380.75 194.97,376.81 194.98,374.75 C194.99,372.09 195.44,371.00 196.50,371.00 C197.32,371.00 198.00,371.68 198.00,372.51 C198.00,373.75 198.35,373.80 199.92,372.82 C202.30,371.33 205.00,373.17 205.00,376.28 C205.00,378.18 205.12,378.20 206.81,376.67 C209.08,374.61 211.00,376.16 211.00,380.03 C211.00,384.67 212.37,384.25 214.97,378.80 C217.30,373.92 217.80,373.48 221.28,373.19 L 225.07,372.88 L 224.40,379.44 C224.03,383.05 224.00,386.00 224.35,386.00 C224.69,386.00 226.28,383.41 227.89,380.25 C229.57,376.94 231.80,374.08 233.15,373.50 C234.63,372.87 235.68,371.40 236.01,369.51 C236.29,367.83 237.23,366.39 238.14,366.21 C239.58,365.93 239.71,367.16 239.31,377.20 C238.99,385.09 239.16,388.05 239.88,387.02 C240.44,386.21 241.18,383.73 241.51,381.52 C242.80,373.04 245.75,369.32 248.78,372.35 C249.88,373.46 249.95,374.23 249.06,375.88 C248.44,377.05 247.50,378.00 246.96,378.00 C245.64,378.00 245.74,382.72 247.08,383.55 C247.68,383.92 249.46,382.71 251.04,380.86 C254.65,376.65 254.91,377.95 251.38,382.57 C248.51,386.33 246.93,386.78 244.64,384.49 C242.97,382.83 242.59,383.18 241.60,387.32 C240.59,391.53 237.79,390.40 236.11,385.11 C235.01,381.63 234.54,381.07 233.81,382.37 C232.76,384.25 229.35,384.56 228.78,382.83 C228.56,382.18 227.78,383.11 227.05,384.88 C225.19,389.37 221.71,388.91 221.00,384.09 C220.55,381.01 220.36,380.84 219.11,382.36 C218.31,383.33 216.97,383.81 215.94,383.48 C214.97,383.17 213.88,383.39 213.53,383.96 C212.23,386.05 210.04,384.92 209.22,381.75 C208.18,377.77 206.80,377.83 205.61,381.92 C204.33,386.31 203.01,385.73 202.93,380.75 C202.89,378.41 202.51,375.61 202.09,374.52 C201.33,372.59 201.28,372.60 200.14,374.73 C199.50,375.94 198.69,378.96 198.35,381.46 C197.88,384.88 197.30,386.00 195.98,386.00 C195.02,386.00 194.00,386.90 193.71,388.00 C192.97,390.82 190.13,390.48 188.98,387.43 M 158.80,375.13 C157.37,374.61 156.03,377.01 156.06,380.00 C156.08,382.32 156.22,382.25 157.96,379.00 C159.09,376.89 159.42,375.35 158.80,375.13 M 186.52,377.01 C187.21,374.78 187.12,374.66 185.64,375.88 C184.74,376.63 184.01,378.43 184.03,379.87 C184.06,382.77 185.13,381.55 186.52,377.01 M 219.47,379.05 C221.47,375.18 221.52,373.04 219.57,375.04 C218.07,376.56 216.35,382.00 217.37,382.00 C217.69,382.00 218.64,380.67 219.47,379.05 M 233.79,377.75 C234.52,376.02 234.58,375.00 233.95,375.00 C232.95,375.00 231.00,379.13 231.00,381.27 C231.00,382.83 232.35,381.13 233.79,377.75 M 247.98,373.69 C247.99,373.25 247.55,373.16 247.00,373.50 C246.45,373.84 246.01,374.88 246.02,375.81 C246.03,377.27 246.16,377.29 247.00,376.00 C247.53,375.18 247.98,374.14 247.98,373.69 M 262.04,386.07 C260.90,383.95 260.65,377.09 261.61,374.58 C262.86,371.31 263.91,373.21 264.20,379.25 L 264.50,385.50 L 266.34,379.70 C267.41,376.32 268.66,374.05 269.34,374.28 C269.98,374.49 270.87,376.99 271.33,379.83 C272.24,385.57 273.51,386.50 274.47,382.14 C274.87,380.32 274.46,377.94 273.36,375.63 C271.96,372.70 271.87,371.74 272.88,370.74 C273.88,369.75 274.43,369.89 275.57,371.44 C276.36,372.51 277.00,374.42 277.00,375.69 C277.00,378.79 280.73,378.92 281.18,375.83 C281.36,374.63 282.11,373.46 282.85,373.21 C283.85,372.88 284.13,373.77 283.96,376.63 C283.83,378.76 283.80,381.62 283.90,383.00 C284.08,385.38 284.17,385.33 286.00,382.00 C288.02,378.32 288.71,370.00 287.00,370.00 C286.45,370.00 286.00,369.55 286.00,369.00 C286.00,368.45 286.68,368.00 287.50,368.00 C288.32,368.00 289.00,367.32 289.00,366.50 C289.00,365.68 289.68,365.00 290.50,365.00 C291.32,365.00 292.00,365.68 292.00,366.50 C292.00,368.85 296.66,368.40 297.29,366.00 C298.42,361.69 300.00,364.12 300.00,370.15 C300.00,376.18 300.04,376.27 301.94,374.56 C304.70,372.06 306.00,373.41 306.02,378.81 C306.04,385.86 307.37,387.02 309.49,381.83 C310.46,379.45 311.45,378.03 311.69,378.68 C312.23,380.15 308.29,388.00 307.01,388.00 C305.32,388.00 304.00,384.23 303.97,379.32 C303.94,374.83 303.83,374.64 302.45,376.47 C301.63,377.55 300.49,380.18 299.92,382.30 C299.22,384.91 298.43,386.00 297.51,385.64 C296.76,385.35 295.61,385.77 294.95,386.56 C293.08,388.81 290.08,388.27 288.80,385.45 C287.83,383.34 287.49,383.17 286.77,384.45 C284.79,387.99 281.00,385.67 281.00,380.92 C281.00,377.54 277.18,378.54 276.24,382.17 C275.78,383.91 274.62,385.82 273.64,386.42 C272.19,387.30 271.44,386.98 269.54,384.62 L 267.22,381.74 L 266.53,384.87 C265.75,388.40 263.59,388.97 262.04,386.07 M 295.44,380.58 C297.01,370.07 296.93,368.87 294.70,369.19 C293.44,369.38 292.30,370.51 291.89,372.00 C290.97,375.33 290.83,383.40 291.66,385.56 C292.28,387.17 292.41,387.16 293.65,385.47 C294.38,384.47 295.18,382.27 295.44,380.58 M 317.47,386.96 C316.67,385.65 318.57,383.27 321.05,382.48 C322.60,381.99 322.96,380.69 323.21,374.70 C323.44,369.10 323.83,367.50 325.00,367.50 C326.21,367.50 326.49,369.06 326.47,375.69 C326.43,383.10 326.63,383.93 328.47,384.43 C332.35,385.47 333.00,385.07 333.00,381.61 C333.00,379.75 333.82,377.20 334.83,375.96 L 336.67,373.69 L 339.74,375.96 C343.05,378.41 345.00,378.04 345.00,374.94 C345.00,371.52 346.89,372.87 347.52,376.75 C347.86,378.81 348.25,381.18 348.40,382.00 C348.55,382.82 349.01,381.70 349.41,379.50 C350.71,372.50 350.97,372.21 353.25,375.19 L 355.31,377.89 L 356.90,374.69 C357.90,372.70 359.25,371.50 360.50,371.50 C363.27,371.50 363.64,375.33 361.10,377.70 C359.74,378.95 359.27,380.31 359.65,381.79 C360.44,384.79 361.40,384.58 364.42,380.75 C365.83,378.96 366.98,378.03 366.99,378.67 C367.00,380.36 362.06,386.00 360.57,386.00 C358.93,386.00 356.00,382.74 356.00,380.91 C356.00,380.12 355.12,378.93 354.04,378.26 C352.25,377.14 352.03,377.36 351.45,380.77 C350.43,386.82 349.94,388.00 348.45,388.00 C347.60,388.00 346.57,386.19 345.90,383.50 C344.95,379.74 344.37,379.00 342.38,379.00 C340.58,379.00 340.00,379.55 339.98,381.25 C339.96,385.53 338.71,386.22 331.67,385.86 C327.35,385.63 324.66,385.94 323.84,386.76 C322.33,388.27 318.36,388.39 317.47,386.96 M 321.36,385.50 C321.68,384.68 321.50,384.00 320.97,384.00 C320.44,384.00 320.00,384.68 320.00,385.50 C320.00,386.32 320.18,387.00 320.39,387.00 C320.61,387.00 321.05,386.32 321.36,385.50 M 338.29,383.00 C338.96,380.43 338.04,376.86 336.89,377.57 C335.73,378.28 335.73,385.00 336.88,385.00 C337.37,385.00 338.00,384.10 338.29,383.00 M 360.79,373.86 C360.54,373.11 360.08,373.57 359.73,374.92 C359.30,376.58 359.43,376.97 360.17,376.23 C360.75,375.65 361.03,374.58 360.79,373.86 M 282.50,370.00 C282.84,369.45 283.32,369.00 283.56,369.00 C283.80,369.00 284.00,369.45 284.00,370.00 C284.00,370.55 283.52,371.00 282.94,371.00 C282.36,371.00 282.16,370.55 282.50,370.00 M 249.00,351.96 C249.00,349.66 245.57,342.47 244.01,341.51 C243.40,341.13 243.95,339.61 245.42,337.69 C246.75,335.93 248.15,333.26 248.53,331.75 C249.22,328.98 250.99,327.92 251.02,330.25 C251.03,331.14 251.28,331.10 251.91,330.10 C252.97,328.43 256.00,329.35 256.00,331.35 C256.00,333.47 258.66,335.24 260.81,334.56 C262.17,334.13 262.59,333.28 262.27,331.62 C261.62,328.21 264.57,327.42 266.57,330.47 C267.81,332.35 267.90,333.32 267.01,334.98 C264.44,339.78 258.12,339.51 254.13,334.44 C252.79,332.74 252.00,332.28 252.00,333.22 C252.00,334.04 253.11,335.90 254.46,337.36 L 256.92,340.02 L 254.49,343.61 C253.15,345.59 251.77,348.73 251.42,350.60 C250.72,354.29 249.00,355.26 249.00,351.96 M 236.00,337.71 C234.06,336.72 233.50,335.67 233.50,332.97 C233.50,330.17 233.92,329.44 235.68,329.19 C237.41,328.94 237.92,329.45 238.18,331.68 C238.64,335.69 241.58,335.90 243.75,332.08 C244.71,330.39 246.06,329.01 246.75,329.01 C250.12,328.99 246.03,336.44 241.88,337.89 C240.13,338.50 238.66,338.99 238.60,338.99 C238.55,338.98 237.38,338.40 236.00,337.71 M 220.79,333.10 C214.65,327.62 217.08,318.62 225.73,314.79 C230.90,312.51 235.53,312.73 241.48,315.56 C245.78,317.60 249.98,323.29 247.56,323.81 C246.77,323.98 245.20,323.20 244.06,322.06 C241.47,319.47 238.82,319.44 236.52,321.98 C234.28,324.46 232.64,323.57 233.46,320.31 C234.01,318.10 233.84,317.91 231.79,318.54 C230.53,318.93 228.94,319.69 228.25,320.24 C226.73,321.46 226.64,320.53 228.04,317.93 C229.52,315.15 227.48,315.43 224.50,318.41 C219.92,322.99 220.30,329.42 225.15,329.48 C227.81,329.50 228.81,332.32 226.96,334.55 C225.27,336.58 224.48,336.40 220.79,333.10 M 272.48,332.95 C271.58,330.11 273.68,327.76 276.01,329.00 C277.34,329.72 277.95,329.56 278.40,328.40 C279.70,325.01 278.90,321.74 276.08,318.92 C272.66,315.51 270.37,314.96 271.96,317.93 C273.53,320.86 273.23,321.27 270.78,319.56 C267.54,317.29 266.20,317.60 266.76,320.50 C267.30,323.33 266.38,323.60 263.56,321.47 C260.88,319.44 258.30,319.63 256.27,322.00 C254.23,324.38 252.00,324.62 252.00,322.45 C252.00,318.40 260.99,313.00 267.72,313.00 C275.27,313.00 283.00,319.61 283.00,326.07 C283.00,332.22 274.10,338.04 272.48,332.95 M 204.00,325.03 C202.07,323.99 198.81,322.84 196.75,322.48 C193.00,321.82 192.05,320.35 194.08,318.32 C196.68,315.72 189.45,310.08 183.35,309.93 C180.86,309.87 180.75,309.75 182.50,309.00 C186.92,307.10 190.14,307.90 194.12,311.88 C196.25,314.02 198.00,315.37 198.00,314.88 C198.00,314.40 198.45,314.00 199.00,314.00 C199.55,314.00 200.00,314.64 200.00,315.43 C200.00,317.66 206.50,324.00 208.80,324.00 C210.85,324.00 214.00,321.60 214.00,320.04 C214.00,319.59 213.21,319.28 212.25,319.36 C209.92,319.55 209.80,314.66 212.13,314.21 C216.55,313.36 218.67,321.33 215.00,325.00 C212.52,327.48 208.57,327.49 204.00,325.03 M 285.17,324.69 C282.44,321.77 282.39,317.86 285.06,315.45 C286.60,314.05 287.53,313.84 288.75,314.61 C291.27,316.20 291.43,318.07 289.11,318.68 C286.26,319.43 286.45,321.79 289.46,323.16 C292.42,324.51 296.11,322.51 298.80,318.09 C299.73,316.55 300.95,315.18 301.50,315.04 C302.05,314.90 304.19,313.26 306.25,311.39 C308.70,309.18 311.01,308.00 312.91,308.00 C315.40,308.00 315.73,307.69 315.25,305.83 C314.78,304.06 315.01,303.79 316.47,304.35 C319.39,305.47 321.00,303.18 321.00,297.88 C321.00,293.67 320.73,293.00 319.00,293.00 C317.85,293.00 317.00,292.33 317.00,291.43 C317.00,288.30 321.42,290.25 322.60,293.91 L 323.70,297.32 L 324.36,294.68 C324.73,293.24 326.26,291.38 327.76,290.57 C330.48,289.09 330.46,289.08 325.18,289.04 C319.41,289.00 316.00,287.71 316.00,285.57 C316.00,283.13 319.38,282.69 320.87,284.93 C322.22,286.96 322.95,287.00 360.43,287.00 C400.53,287.00 403.25,287.29 401.69,291.36 C400.83,293.61 398.30,293.42 397.00,291.00 C396.06,289.24 394.92,289.00 387.71,289.03 C381.07,289.06 379.88,289.28 381.50,290.19 C384.23,291.75 384.97,293.02 384.98,296.28 C385.00,298.26 384.35,299.31 382.75,299.91 C380.10,300.92 377.00,299.58 377.00,297.43 C377.00,295.37 379.71,294.51 381.51,296.01 C382.72,297.01 383.00,296.95 383.00,295.66 C383.00,293.66 379.98,292.00 376.34,292.00 C374.78,292.00 370.11,294.08 365.77,296.70 L 358.00,301.40 L 361.17,302.45 C366.23,304.12 365.84,305.85 360.54,305.25 C356.35,304.78 356.00,304.91 356.00,306.99 C356.00,308.85 355.74,309.03 354.55,308.04 C353.42,307.10 351.91,307.10 347.68,308.05 C344.70,308.71 339.52,309.06 336.17,308.82 C329.47,308.33 326.64,306.57 324.40,301.50 C323.63,299.74 323.06,299.21 323.04,300.20 C322.97,303.17 320.77,306.94 318.72,307.59 C317.34,308.03 317.10,308.45 317.95,308.97 C318.65,309.40 317.39,309.95 314.92,310.28 C312.03,310.67 309.72,311.82 307.65,313.89 C304.77,316.76 304.71,317.02 306.31,318.79 C308.23,320.91 307.64,322.00 304.58,322.01 C303.44,322.02 300.09,323.14 297.15,324.51 C290.51,327.60 287.95,327.64 285.17,324.69 M 347.31,304.61 C349.86,303.84 355.45,300.82 359.72,297.89 C364.00,294.96 369.75,291.78 372.50,290.81 L 377.50,289.07 L 357.11,289.03 L 336.72,289.00 L 342.46,292.06 C347.95,294.99 348.29,295.05 350.12,293.39 C351.53,292.11 352.34,291.94 353.16,292.76 C356.34,295.94 349.72,298.53 344.93,295.96 C343.34,295.11 343.00,295.26 343.00,296.81 C343.00,299.58 339.56,302.31 337.07,301.52 C334.73,300.78 332.60,297.46 333.51,295.98 C334.61,294.20 337.00,294.96 337.00,297.08 C337.00,299.70 339.39,299.09 339.79,296.37 C339.96,295.28 339.17,293.56 338.05,292.55 C336.41,291.06 335.40,290.88 332.78,291.63 C326.30,293.49 325.18,301.76 331.02,304.71 C334.31,306.38 341.58,306.33 347.31,304.61 M 184.00,317.50 C184.00,316.68 184.39,316.00 184.88,316.00 C185.36,316.00 186.32,316.68 187.00,317.50 C188.04,318.75 187.90,319.00 186.12,319.00 C184.90,319.00 184.00,318.36 184.00,317.50 M 313.50,317.00 C314.50,315.90 315.47,315.00 315.65,315.00 C315.84,315.00 316.00,315.90 316.00,317.00 C316.00,318.38 315.33,319.00 313.85,319.00 C311.75,319.00 311.74,318.94 313.50,317.00 M 153.50,308.53 C149.68,307.70 146.87,307.57 145.75,308.15 C144.34,308.89 144.00,308.65 144.00,306.91 C144.00,304.93 143.60,304.78 139.50,305.25 C134.29,305.83 133.60,304.58 138.13,302.73 L 141.26,301.45 L 137.38,298.82 C127.48,292.09 121.67,290.47 118.57,293.57 C116.54,295.60 116.47,297.69 118.49,296.01 C120.29,294.51 123.00,295.37 123.00,297.43 C123.00,299.74 119.40,301.28 117.00,300.00 C114.03,298.41 114.36,293.65 117.63,291.07 L 120.27,289.00 L 112.55,289.00 C105.83,289.00 104.59,289.28 103.07,291.17 C101.96,292.54 100.70,293.10 99.66,292.70 C97.16,291.74 97.67,289.08 100.57,287.98 C102.07,287.40 118.80,287.00 140.95,287.00 C177.93,287.00 178.78,286.96 179.29,285.00 C179.87,282.79 180.75,282.55 183.00,283.99 C184.16,284.73 184.25,285.35 183.40,286.72 C182.58,288.04 180.50,288.65 175.40,289.07 C171.60,289.39 169.21,289.73 170.08,289.82 C170.94,289.92 172.63,291.04 173.83,292.31 C178.68,297.48 174.96,306.81 167.19,308.97 C162.65,310.22 161.08,310.18 153.50,308.53 M 170.94,303.55 C176.87,298.19 169.08,288.10 162.39,292.48 C159.68,294.25 159.03,299.00 161.50,299.00 C162.33,299.00 163.00,298.11 163.00,297.00 C163.00,294.62 165.79,294.30 166.67,296.58 C167.02,297.50 166.42,299.03 165.23,300.21 C162.30,303.14 158.14,301.97 157.35,298.00 C156.86,295.53 156.47,295.21 154.95,296.03 C150.19,298.58 143.70,295.87 146.93,292.68 C147.86,291.77 148.43,291.90 149.43,293.25 C150.83,295.15 153.05,295.52 154.55,294.10 C155.07,293.61 157.29,292.26 159.49,291.10 L 163.47,289.00 L 142.99,289.03 L 122.50,289.07 L 127.50,290.81 C130.25,291.77 136.08,294.98 140.45,297.94 C144.82,300.90 150.22,303.92 152.45,304.65 C158.17,306.51 168.34,305.91 170.94,303.55 M 180.40,307.25 C178.36,305.86 177.00,302.16 177.00,298.00 C177.00,292.89 178.46,290.00 181.04,290.00 C183.61,290.00 183.58,292.62 181.00,293.29 C179.38,293.71 179.00,294.65 179.00,298.28 C179.00,303.14 180.69,305.44 183.47,304.37 C184.79,303.87 185.12,304.16 184.84,305.59 C184.45,307.62 182.19,308.46 180.40,307.25 M 210.00,281.53 C210.00,271.75 209.78,270.15 208.50,270.64 C207.68,270.95 207.00,272.07 207.00,273.11 C207.00,274.54 206.28,275.00 204.00,275.00 C202.15,275.00 201.00,274.48 201.00,273.65 C201.00,267.93 217.93,265.93 223.06,271.06 C225.80,273.80 225.48,275.00 222.00,275.00 C220.12,275.00 219.00,274.49 219.00,273.62 C219.00,272.86 218.32,271.68 217.50,271.00 C216.18,269.91 216.00,271.16 216.00,281.38 L 216.00,293.00 L 213.00,293.00 L 210.00,293.00 L 210.00,281.53 M 228.00,284.39 L 228.00,275.79 L 232.25,276.38 C234.59,276.70 237.06,277.05 237.75,277.15 C238.46,277.26 239.00,278.76 239.00,280.67 C239.00,283.33 238.60,284.00 237.00,284.00 C235.44,284.00 235.00,283.33 235.00,281.00 C235.00,279.35 234.55,278.00 234.00,278.00 C233.42,278.00 233.00,281.17 233.00,285.50 C233.00,292.83 232.94,293.00 230.50,293.00 C228.03,293.00 228.00,292.91 228.00,284.39 M 243.00,291.50 C242.31,290.67 241.54,288.09 241.28,285.75 C240.13,275.45 252.64,271.69 254.61,281.75 L 255.25,285.00 L 250.62,285.00 C245.82,285.00 245.47,285.42 246.63,289.75 C247.34,292.41 249.62,292.65 252.17,290.35 C254.17,288.53 254.74,289.86 252.80,291.80 C251.10,293.50 244.49,293.30 243.00,291.50 M 250.77,281.97 C250.93,281.14 250.43,279.60 249.66,278.55 C248.30,276.69 248.23,276.70 247.05,278.90 C246.39,280.14 246.10,281.83 246.42,282.65 C247.14,284.52 250.37,284.01 250.77,281.97 M 259.11,291.71 C258.50,291.10 258.00,288.06 258.00,284.95 C258.00,277.77 259.57,276.19 266.75,276.15 L 272.00,276.11 L 272.00,283.56 C272.00,287.85 272.42,291.00 273.00,291.00 C273.55,291.00 274.00,291.41 274.00,291.91 C274.00,293.22 260.44,293.04 259.11,291.71 M 266.76,285.49 C266.90,282.20 266.61,278.88 266.12,278.12 C264.29,275.31 263.00,278.22 263.00,285.13 C263.00,291.27 263.22,292.11 264.75,291.81 C266.15,291.55 266.55,290.28 266.76,285.49 M 277.63,292.21 C277.17,291.47 276.76,280.47 276.93,273.25 C276.99,270.47 277.36,270.00 279.50,270.00 C281.60,270.00 282.00,270.47 282.00,272.92 C282.00,274.52 282.56,276.06 283.25,276.34 C284.25,276.74 284.25,276.86 283.25,276.92 C281.71,277.02 281.46,291.00 283.00,291.00 C283.55,291.00 284.00,291.45 284.00,292.00 C284.00,293.18 278.34,293.36 277.63,292.21 M 288.20,291.80 C287.54,291.14 287.01,290.13 287.03,289.55 C287.05,288.97 287.52,289.29 288.08,290.25 C289.21,292.20 292.51,292.60 293.56,290.91 C293.93,290.31 292.60,288.15 290.61,286.12 C288.63,284.08 287.00,281.44 287.00,280.24 C287.00,277.91 289.64,276.00 292.86,276.00 C294.97,276.00 298.48,278.85 297.54,279.80 C297.23,280.10 296.37,279.53 295.63,278.51 C294.81,277.39 293.65,276.92 292.64,277.31 C290.15,278.26 290.65,279.86 294.50,283.27 C299.87,288.03 298.85,293.00 292.50,293.00 C290.79,293.00 288.86,292.46 288.20,291.80 M 244.36,241.95 C242.63,240.84 239.93,237.48 238.36,234.47 C236.79,231.46 235.11,229.00 234.62,229.00 C233.07,229.00 234.63,239.25 236.37,240.53 C237.27,241.18 238.00,242.01 238.00,242.36 C238.00,242.71 234.18,243.00 229.50,243.00 C224.82,243.00 221.00,242.70 221.00,242.33 C221.00,241.96 221.79,240.79 222.75,239.72 C224.23,238.09 224.50,235.77 224.50,224.84 C224.50,212.20 224.44,211.84 222.00,209.96 L 219.50,208.04 L 233.03,208.02 C243.94,208.00 247.00,208.32 248.88,209.63 C251.84,211.70 254.07,216.97 253.31,220.09 C252.62,222.97 248.16,228.00 246.31,228.00 C244.01,228.00 244.90,229.90 247.95,231.47 C249.57,232.31 252.22,233.00 253.84,233.00 C258.68,233.00 259.63,238.57 255.37,241.93 C252.05,244.53 248.40,244.54 244.36,241.95 M 242.29,222.91 C243.84,220.44 242.22,214.19 239.59,212.47 C235.62,209.87 234.00,211.46 234.00,217.94 C234.00,221.09 234.32,223.99 234.71,224.38 C235.94,225.61 241.25,224.58 242.29,222.91 M 272.50,242.17 C265.04,238.61 261.99,233.52 262.02,224.68 C262.06,210.90 276.22,202.83 289.67,208.94 C294.28,211.03 296.00,213.42 296.00,217.73 C296.00,221.33 294.37,223.00 290.88,223.00 C286.32,223.00 284.95,222.06 285.62,219.39 C287.27,212.82 278.01,209.00 274.27,214.71 C271.63,218.74 271.88,228.46 274.74,233.08 C277.00,236.73 280.56,239.00 284.05,239.00 C286.86,239.00 286.83,231.69 284.00,229.27 C282.90,228.33 282.00,227.21 282.00,226.78 C282.00,226.35 286.05,226.00 291.00,226.00 C295.95,226.00 300.00,226.35 300.00,226.78 C300.00,227.21 299.10,228.33 298.00,229.27 C296.43,230.62 296.00,232.22 296.00,236.79 L 296.00,242.60 L 292.25,242.67 C290.19,242.71 285.80,243.04 282.50,243.41 C277.68,243.95 275.71,243.71 272.50,242.17 M 143.00,242.50 C143.00,242.22 143.90,241.10 145.00,240.00 C146.80,238.20 147.00,236.67 147.00,224.93 C147.00,217.75 146.53,211.00 145.96,209.93 C144.99,208.12 145.31,208.00 150.92,208.00 L 156.92,208.00 L 162.71,217.57 C171.50,232.08 170.93,231.83 170.97,221.29 C171.00,213.08 170.76,211.86 168.81,210.04 L 166.62,208.00 L 173.56,208.02 L 180.50,208.04 L 178.00,209.96 C175.56,211.84 175.50,212.22 175.14,227.44 L 174.79,243.00 L 170.50,243.00 L 166.21,243.00 L 159.35,231.53 C155.58,225.23 152.12,220.05 151.65,220.03 C151.19,220.01 150.96,224.31 151.15,229.58 C151.43,237.29 151.84,239.41 153.25,240.44 C156.11,242.53 155.32,243.00 149.00,243.00 C145.70,243.00 143.00,242.78 143.00,242.50 M 186.00,242.36 C186.00,241.97 186.79,240.79 187.75,239.72 C189.23,238.09 189.50,235.77 189.50,224.84 C189.50,212.20 189.44,211.84 187.00,209.97 L 184.50,208.04 L 199.12,208.02 L 213.74,208.00 L 214.30,212.23 C215.02,217.60 214.46,218.12 211.70,214.64 C209.86,212.34 208.63,211.83 204.49,211.68 L 199.50,211.50 L 199.20,217.25 C198.92,222.62 199.05,223.00 201.14,223.00 C202.37,223.00 204.41,222.02 205.69,220.83 L 208.00,218.65 L 208.00,224.83 C208.00,231.17 207.54,232.09 205.61,229.52 C205.00,228.70 203.38,227.92 202.00,227.77 C199.62,227.51 199.49,227.78 199.20,233.25 L 198.90,239.00 L 204.38,239.00 C209.36,239.00 210.09,238.70 212.46,235.75 L 215.06,232.50 L 214.78,237.50 L 214.50,242.50 L 200.25,242.78 C192.41,242.93 186.00,242.74 186.00,242.36 M 304.00,242.50 C304.00,242.22 304.90,241.10 306.00,240.00 C307.78,238.22 308.00,236.67 308.00,225.63 C308.00,214.64 307.77,212.98 305.93,210.63 L 303.85,208.00 L 313.10,208.00 L 322.35,208.00 L 320.17,210.31 C318.17,212.45 318.00,213.65 318.00,225.81 C318.00,237.90 318.16,239.09 320.00,240.23 C323.56,242.45 322.17,243.00 313.00,243.00 C308.05,243.00 304.00,242.78 304.00,242.50 M 328.00,242.50 C328.00,242.22 328.90,241.10 330.00,240.00 C331.79,238.21 332.00,236.67 332.00,225.50 C332.00,214.33 331.79,212.79 330.00,211.00 C328.90,209.90 328.00,208.78 328.00,208.50 C328.00,208.22 334.25,208.00 341.89,208.00 C357.05,208.00 357.00,207.98 357.00,214.08 C357.00,217.68 356.52,217.72 353.62,214.35 C351.83,212.27 350.39,211.68 346.92,211.60 L 342.50,211.50 L 342.20,217.25 C341.91,222.81 341.99,223.00 344.41,223.00 C345.92,223.00 347.37,222.18 348.01,220.97 C349.68,217.86 351.00,219.60 351.00,224.89 C351.00,230.81 350.40,231.46 347.23,228.97 C342.95,225.60 342.00,226.33 342.00,233.00 L 342.00,239.00 L 347.05,239.00 C351.23,239.00 352.52,238.54 354.56,236.34 C357.62,233.04 358.25,233.59 357.41,238.87 L 356.74,243.00 L 342.37,243.00 C334.47,243.00 328.00,242.78 328.00,242.50 M 221.50,190.00 C220.05,189.38 219.91,189.08 221.00,188.92 C221.82,188.80 222.95,188.63 223.50,188.55 C225.41,188.27 231.74,184.89 233.61,183.15 C234.65,182.19 236.35,181.07 237.39,180.68 C238.43,180.28 239.06,179.73 238.78,179.45 C238.50,179.17 237.03,179.42 235.50,180.00 C233.97,180.58 232.57,180.91 232.39,180.72 C232.20,180.54 236.14,178.64 241.13,176.50 C246.11,174.36 254.53,169.78 259.83,166.31 C269.71,159.84 272.66,158.98 277.45,161.16 C280.42,162.51 280.78,165.59 278.49,170.01 C276.68,173.51 271.37,175.35 256.52,177.60 C251.04,178.43 246.31,179.50 246.02,179.97 C245.72,180.45 243.05,181.80 240.07,182.97 C237.10,184.14 233.36,186.20 231.76,187.55 C230.16,188.90 228.24,190.00 227.51,190.00 C226.77,190.00 225.56,190.19 224.83,190.43 C224.10,190.67 222.60,190.47 221.50,190.00 M 244.39,177.44 C244.83,176.28 244.58,176.24 242.96,177.26 C241.88,177.93 241.00,178.81 241.00,179.21 C241.00,180.42 243.81,178.95 244.39,177.44 M 260.42,174.34 C262.57,173.59 265.15,173.23 266.14,173.54 C268.89,174.42 277.35,170.36 276.64,168.51 C276.32,167.68 276.61,166.99 277.28,166.98 C278.10,166.97 278.04,166.68 277.09,166.08 C276.32,165.59 274.97,165.40 274.09,165.66 C273.22,165.92 273.62,165.42 275.00,164.53 L 277.50,162.92 L 274.00,163.47 C270.95,163.94 270.81,163.88 272.90,162.98 C274.21,162.42 275.09,161.75 274.84,161.51 C273.97,160.63 267.14,163.07 264.83,165.07 L 262.50,167.10 L 265.70,165.55 C270.35,163.30 271.17,163.73 266.72,166.08 C264.64,167.18 262.43,167.77 261.81,167.39 C261.13,166.96 260.97,167.14 261.40,167.85 C261.80,168.48 261.73,169.00 261.25,169.00 C260.77,169.00 259.51,169.68 258.44,170.50 C256.91,171.69 256.86,171.88 258.20,171.41 C259.14,171.09 260.49,171.18 261.20,171.63 C262.05,172.15 260.05,173.22 255.50,174.67 C250.73,176.20 249.78,176.72 252.50,176.31 C254.70,175.98 258.26,175.09 260.42,174.34 M 220.02,186.31 C220.00,185.02 223.81,182.00 225.45,182.00 C226.00,182.00 225.33,182.76 223.97,183.69 C222.61,184.62 221.17,185.86 220.77,186.44 C220.27,187.15 220.03,187.11 220.02,186.31 M 227.75,181.34 C228.44,181.06 229.56,181.06 230.25,181.34 C230.94,181.62 230.38,181.84 229.00,181.84 C227.62,181.84 227.06,181.62 227.75,181.34 M 179.00,177.50 C179.00,175.66 182.23,175.84 136.51,175.11 C101.38,174.55 98.50,174.37 98.19,172.75 C97.65,169.96 101.10,169.27 102.80,171.82 C104.08,173.76 105.14,174.00 112.26,174.00 L 120.27,174.00 L 117.63,171.93 C114.66,169.59 114.07,165.02 116.49,163.01 C118.66,161.21 123.00,162.57 123.00,165.05 C123.00,167.55 120.47,168.64 118.49,166.99 C117.67,166.31 117.01,166.15 117.02,166.63 C117.05,168.67 118.88,170.10 122.08,170.59 C124.88,171.02 126.92,170.27 133.36,166.47 C140.89,162.02 141.79,160.61 137.58,159.85 C136.53,159.66 135.48,158.94 135.25,158.26 C134.94,157.33 136.00,157.18 139.42,157.64 C143.46,158.20 144.00,158.05 144.00,156.39 C144.00,154.86 144.80,154.47 148.25,154.36 C150.59,154.28 155.95,154.05 160.17,153.86 C168.94,153.45 172.14,154.98 175.25,161.07 C176.88,164.27 177.00,164.33 177.00,161.97 C177.00,158.53 179.65,155.01 182.31,154.93 C184.42,154.86 184.43,154.83 182.50,154.00 C180.60,153.18 180.62,153.14 182.78,153.07 C186.57,152.95 191.74,150.32 193.52,147.61 C195.06,145.26 195.06,144.92 193.59,143.45 C191.46,141.32 192.43,140.00 196.10,140.00 C197.74,140.00 200.84,139.10 203.00,138.00 C205.16,136.90 208.29,136.00 209.96,136.00 C215.81,136.00 218.83,141.94 215.44,146.78 C213.57,149.45 211.40,149.64 210.17,147.25 C209.04,145.06 209.72,143.00 211.58,143.00 C214.05,143.00 213.11,140.07 210.42,139.39 C206.84,138.49 203.66,140.48 200.95,145.31 C199.68,147.57 198.46,148.88 198.24,148.22 C198.01,147.52 196.47,148.48 194.55,150.51 C192.75,152.43 189.86,154.28 188.13,154.62 C186.36,154.98 185.00,155.88 185.00,156.69 C185.00,157.66 184.37,157.93 183.06,157.52 C180.42,156.68 178.81,159.93 179.19,165.29 C179.41,168.23 179.95,169.50 181.00,169.50 C181.82,169.50 182.50,170.18 182.50,171.00 C182.50,171.83 181.61,172.50 180.50,172.50 C179.14,172.50 178.17,171.49 177.47,169.33 L 176.45,166.15 L 174.76,169.10 C173.83,170.71 172.04,172.45 170.79,172.96 C169.03,173.66 170.01,173.89 175.00,173.95 C182.20,174.04 184.60,174.99 183.68,177.40 C182.90,179.43 179.00,179.51 179.00,177.50 M 158.50,171.00 C151.90,167.53 151.15,167.42 149.51,169.65 C148.19,171.46 146.00,170.72 146.00,168.48 C146.00,165.37 152.26,164.55 155.68,167.21 C156.51,167.85 156.95,167.30 157.18,165.33 C157.65,161.27 162.22,159.77 165.16,162.72 C166.40,163.95 167.03,165.49 166.67,166.42 C165.82,168.63 163.92,168.39 163.29,166.00 C162.55,163.18 160.00,163.48 160.00,166.38 C160.00,169.52 162.34,171.32 166.28,171.21 C172.70,171.03 175.39,163.03 170.37,159.07 C168.30,157.45 166.30,157.00 161.12,157.01 C153.62,157.02 147.81,159.26 139.13,165.50 C136.25,167.57 131.32,170.32 128.19,171.61 L 122.50,173.95 L 143.35,173.98 L 164.20,174.00 L 158.50,171.00 M 316.32,177.40 C315.38,174.95 317.83,174.04 325.50,173.98 C332.45,173.92 332.48,173.91 329.22,172.49 C327.20,171.62 325.38,169.80 324.51,167.78 C323.14,164.64 323.08,164.61 323.04,167.10 C323.00,169.77 320.30,173.00 318.10,173.00 C317.41,173.00 317.01,172.21 317.19,171.25 C317.38,170.29 318.20,169.50 319.01,169.50 C320.05,169.50 320.59,168.21 320.81,165.29 C321.19,159.93 319.58,156.68 316.94,157.52 C315.58,157.95 315.00,157.66 315.00,156.57 C315.00,154.15 319.62,154.62 321.44,157.22 C322.30,158.44 323.01,160.58 323.02,161.97 C323.04,164.13 323.31,163.91 324.90,160.42 C327.57,154.54 332.24,152.52 340.91,153.50 C344.54,153.90 349.41,154.30 351.75,154.37 C354.28,154.45 356.00,154.98 356.00,155.68 C356.00,157.46 359.39,158.18 362.37,157.05 C363.82,156.50 365.00,156.40 365.00,156.82 C365.00,158.40 362.52,160.00 360.05,160.02 L 357.50,160.04 L 360.00,162.03 C369.14,169.30 378.30,172.13 381.71,168.72 C383.75,166.68 382.68,165.19 380.48,167.02 C379.39,167.92 378.60,168.00 377.86,167.26 C376.16,165.56 377.33,162.53 379.82,162.17 C386.62,161.20 386.78,170.80 380.00,173.29 C379.18,173.59 382.41,173.88 387.18,173.92 C395.02,173.99 395.93,173.81 396.50,172.00 C397.26,169.61 400.81,169.34 401.68,171.60 C402.01,172.48 401.66,173.60 400.90,174.09 C400.13,174.57 382.08,174.98 360.79,174.98 C323.10,175.00 322.04,175.05 321.00,177.00 C319.71,179.40 317.17,179.62 316.32,177.40 M 373.18,172.10 C370.26,171.09 364.84,168.19 361.14,165.67 C350.16,158.16 344.78,156.39 334.44,156.86 C324.77,157.30 324.64,171.00 334.30,171.00 C338.17,171.00 340.00,169.49 340.00,166.30 C340.00,163.41 337.43,163.26 336.68,166.11 C336.07,168.44 333.67,168.22 333.20,165.79 C332.79,163.67 335.67,161.00 338.37,161.00 C341.06,161.00 343.00,162.76 343.00,165.20 C343.00,167.31 343.04,167.32 346.65,165.94 C350.36,164.53 354.00,165.53 354.00,167.96 C354.00,170.61 352.46,171.32 350.65,169.51 C348.63,167.49 347.15,167.61 343.00,170.15 C341.07,171.33 338.38,172.64 337.00,173.06 C335.62,173.48 344.40,173.85 356.50,173.88 L 378.50,173.93 L 373.18,172.10 M 308.37,153.08 C306.64,152.03 304.55,150.20 303.72,149.02 C302.67,147.51 302.08,147.25 301.77,148.18 C301.49,149.02 300.87,148.60 300.05,147.00 C296.56,140.26 290.40,137.00 287.20,140.20 C285.50,141.90 285.70,142.69 288.00,143.29 C290.39,143.91 290.72,147.79 288.46,148.65 C286.07,149.57 283.00,146.11 283.00,142.50 C283.00,136.19 289.42,134.13 297.00,138.00 C299.16,139.10 302.29,140.00 303.96,140.00 C307.25,140.00 307.68,140.94 305.79,143.97 C304.76,145.62 304.95,146.31 307.00,148.50 C308.33,149.92 311.44,151.59 313.91,152.21 C317.53,153.12 318.02,153.48 316.45,154.10 C313.33,155.32 311.70,155.11 308.37,153.08 M 225.27,148.04 C220.53,145.89 217.01,141.03 217.00,136.65 C217.00,133.52 223.06,126.52 225.17,127.22 C227.08,127.86 228.37,130.59 227.65,132.47 C227.16,133.74 226.32,134.05 224.51,133.59 C222.46,133.08 221.94,133.40 221.41,135.51 C220.25,140.11 224.68,147.00 228.79,147.00 C229.83,147.00 229.78,146.64 228.57,145.43 C227.71,144.56 227.00,143.35 227.00,142.73 C227.00,141.93 227.35,141.95 228.20,142.80 C228.86,143.46 230.39,144.00 231.61,144.00 C233.28,144.00 233.69,143.54 233.32,142.11 C232.60,139.36 234.45,138.73 236.52,141.02 C238.81,143.56 240.81,143.52 243.60,140.91 C244.82,139.76 246.65,138.99 247.66,139.21 C250.55,139.82 242.47,147.50 237.48,148.88 C232.04,150.39 230.18,150.27 225.27,148.04 M 261.29,148.35 C256.19,146.54 249.57,139.71 252.40,139.16 C253.38,138.97 255.18,139.76 256.40,140.91 C259.18,143.52 260.07,143.52 263.37,140.93 C265.62,139.15 266.09,139.07 266.59,140.38 C266.91,141.22 266.89,142.38 266.53,142.95 C265.67,144.35 268.59,144.29 271.28,142.85 C273.40,141.72 273.40,141.73 271.69,144.35 C269.74,147.33 269.88,147.47 273.40,145.86 C276.49,144.46 279.38,138.66 278.58,135.48 C278.13,133.65 277.38,133.17 275.25,133.31 C272.96,133.47 272.50,133.10 272.50,131.11 C272.50,129.79 273.31,128.22 274.30,127.61 C275.81,126.68 276.69,127.13 279.67,130.36 C282.76,133.71 283.15,134.69 282.65,137.77 C281.92,142.28 277.06,147.36 272.07,148.86 C267.40,150.26 266.57,150.22 261.29,148.35 M 184.00,145.58 C184.00,144.71 184.71,144.00 185.58,144.00 C186.45,144.00 186.99,144.53 186.77,145.19 C186.15,147.04 184.00,147.35 184.00,145.58 M 313.20,145.80 C311.41,144.01 311.75,143.12 314.00,143.71 C315.10,144.00 316.00,144.86 316.00,145.62 C316.00,147.32 314.80,147.40 313.20,145.80 M 233.11,131.82 C230.32,124.41 241.79,121.33 246.07,128.35 C247.28,130.33 247.99,130.88 248.00,129.83 C248.00,128.91 246.93,126.88 245.62,125.33 L 243.24,122.50 L 245.62,119.04 C246.92,117.13 248.27,114.09 248.61,112.29 C249.40,108.05 250.61,108.09 251.42,112.40 C251.77,114.27 253.13,117.38 254.44,119.32 C256.79,122.79 256.80,122.87 254.91,124.58 C253.85,125.54 252.47,128.05 251.83,130.16 C250.66,134.08 249.56,134.98 248.66,132.75 C248.26,131.75 248.14,131.75 248.08,132.75 C247.94,135.02 245.53,134.04 243.80,130.99 C241.57,127.08 238.25,126.94 237.82,130.74 C237.41,134.30 234.32,135.01 233.11,131.82 M 252.43,131.25 C253.24,127.81 257.39,124.00 260.33,124.00 C264.28,124.00 267.15,126.82 266.81,130.35 C266.57,132.73 266.01,133.50 264.50,133.50 C263.06,133.50 262.41,132.73 262.18,130.75 C261.69,126.49 256.99,127.20 255.57,131.75 C255.18,132.99 254.17,134.00 253.32,134.00 C252.15,134.00 251.94,133.34 252.43,131.25 M 267.00,171.90 C268.15,171.09 267.85,170.98 265.70,171.45 C264.17,171.79 262.44,171.77 261.86,171.41 C260.46,170.55 268.65,166.93 270.44,167.62 C271.21,167.91 272.79,167.65 273.94,167.03 C275.57,166.16 275.97,166.20 275.76,167.21 C275.62,167.92 273.70,169.49 271.50,170.70 C267.37,172.98 264.35,173.79 267.00,171.90 M 270.83,170.12 C271.91,169.44 271.86,169.16 270.58,168.67 C269.71,168.34 268.29,168.34 267.42,168.67 C266.14,169.16 266.09,169.44 267.17,170.12 C267.90,170.59 268.73,170.97 269.00,170.97 C269.27,170.97 270.10,170.59 270.83,170.12 Z" fill="rgba(0,0,0,1)"/>
</g>
</svg>